<svg width="18" height="18" viewBox="0 0 18 18" fill="none" xmlns="http://www.w3.org/2000/svg"><path fill-rule="evenodd" clip-rule="evenodd" d="M14.8082 3.23362C13.2151 1.62624 11.0951 0.742182 8.83722 0.739746C4.18371 0.739746 0.398053 4.55362 0.395636 9.23938C0.395636 10.7372 0.784838 12.2009 1.52215 13.4892L0.325531 17.8949L4.80015 16.7137C6.03303 17.3907 7.42062 17.7488 8.8348 17.7488H8.83722C13.4883 17.7488 17.2764 13.9349 17.2788 9.24669C17.2788 6.97443 16.4013 4.83857 14.8082 3.23362ZM8.83722 16.3119H8.8348C7.57533 16.3119 6.34004 15.9709 5.26429 15.3279L5.00805 15.1745L2.35373 15.8759L3.06203 13.2676L2.89523 12.9997C2.19177 11.8745 1.82191 10.574 1.82191 9.23938C1.82432 5.3427 4.97179 2.17421 8.83963 2.17421C10.7131 2.17421 12.4754 2.90971 13.8001 4.24676C15.1249 5.58137 15.8549 7.3568 15.8525 9.24669C15.8501 13.1434 12.7026 16.3119 8.83722 16.3119ZM12.6857 11.0197C12.4754 10.9125 11.4383 10.3986 11.245 10.328C11.0516 10.2574 10.9114 10.2209 10.7711 10.4352C10.6309 10.6471 10.2272 11.1268 10.1039 11.2681C9.98065 11.4093 9.85736 11.4264 9.64705 11.3217C9.43673 11.2145 8.75744 10.9904 7.95003 10.2671C7.32392 9.70455 6.90087 9.00801 6.77759 8.79613C6.6543 8.58425 6.7655 8.46735 6.86945 8.36263C6.96373 8.26764 7.07976 8.11421 7.18613 7.99001C7.29249 7.8658 7.32634 7.77812 7.39644 7.63443C7.46655 7.49318 7.4327 7.36897 7.37952 7.26181C7.32634 7.15465 6.90571 6.10986 6.72924 5.68366C6.5576 5.26964 6.38355 5.32565 6.25543 5.31835C6.13214 5.31104 5.99193 5.31104 5.85172 5.31104C5.71151 5.31104 5.48186 5.36462 5.28847 5.5765C5.09507 5.78838 4.55116 6.30226 4.55116 7.34949C4.55116 8.39429 5.3078 9.40499 5.41175 9.54624C5.51812 9.6875 6.89846 11.8331 9.01369 12.7537C9.51651 12.9729 9.91054 13.1044 10.2151 13.2018C10.7204 13.3626 11.1797 13.3406 11.5447 13.2871C11.9508 13.2262 12.7921 12.7732 12.9686 12.2764C13.145 11.7795 13.145 11.3558 13.0919 11.2657C13.0363 11.1804 12.896 11.1268 12.6857 11.0197Z" fill="#fff"/></svg>