<svg width="18" height="19" viewBox="0 0 18 19" fill="none" xmlns="http://www.w3.org/2000/svg"><path d="M9.3175 2.50058C11.5995 2.50058 11.8703 2.51032 12.772 2.55172C13.606 2.59069 14.058 2.72951 14.3602 2.84884C14.7591 3.00471 15.0443 3.19224 15.3441 3.49423C15.6439 3.79622 15.8276 4.0836 15.9847 4.48545C16.1007 4.78988 16.241 5.2453 16.2796 6.08552C16.3207 6.99394 16.3304 7.2667 16.3304 9.56574C16.3304 11.8648 16.3207 12.1376 16.2796 13.046C16.241 13.8862 16.1032 14.3416 15.9847 14.646C15.83 15.0479 15.6439 15.3353 15.3441 15.6373C15.0443 15.9392 14.7591 16.1243 14.3602 16.2826C14.058 16.3995 13.606 16.5408 12.772 16.5798C11.8703 16.6212 11.5995 16.6309 9.3175 16.6309C7.03547 16.6309 6.76472 16.6212 5.86303 16.5798C5.02902 16.5408 4.57697 16.402 4.27479 16.2826C3.87592 16.1268 3.59067 15.9392 3.29091 15.6373C2.99115 15.3353 2.80743 15.0479 2.6503 14.646C2.53426 14.3416 2.39405 13.8862 2.35537 13.046C2.31428 12.1376 2.30461 11.8648 2.30461 9.56574C2.30461 7.2667 2.31428 6.99394 2.35537 6.08552C2.39405 5.2453 2.53184 4.78988 2.6503 4.48545C2.80501 4.0836 2.99115 3.79622 3.29091 3.49423C3.59067 3.19224 3.87592 3.00715 4.27479 2.84884C4.57697 2.73194 5.02902 2.59069 5.86303 2.55172C6.7623 2.50788 7.03305 2.50058 9.3175 2.50058ZM9.3175 0.946777C6.99437 0.946777 6.70429 0.956519 5.79292 0.997921C4.88398 1.03932 4.26029 1.18545 3.71879 1.39733C3.15553 1.61652 2.67931 1.91121 2.2055 2.39098C1.72927 2.87076 1.43676 3.35054 1.21919 3.91556C1.00888 4.46353 0.863836 5.08943 0.82274 6.00515C0.781644 6.92331 0.771973 7.218 0.771973 9.556C0.771973 11.8964 0.781644 12.1887 0.82274 13.1068C0.863836 14.0226 1.00888 14.6509 1.21919 15.1964C1.43676 15.7639 1.72927 16.2437 2.2055 16.721C2.68172 17.2008 3.15795 17.4955 3.71879 17.7147C4.26271 17.9266 4.88398 18.0727 5.79292 18.1141C6.70429 18.1555 6.99679 18.1652 9.3175 18.1652C11.6382 18.1652 11.9307 18.1555 12.8421 18.1141C13.751 18.0727 14.3747 17.9266 14.9162 17.7147C15.4795 17.4955 15.9557 17.2008 16.4295 16.721C16.9057 16.2412 17.1982 15.7615 17.4158 15.1964C17.6261 14.6485 17.7712 14.0226 17.8123 13.1068C17.8534 12.1887 17.863 11.894 17.863 9.556C17.863 7.218 17.8534 6.92331 17.8123 6.00515C17.7712 5.08943 17.6261 4.46109 17.4158 3.91556C17.1982 3.34811 16.9057 2.86833 16.4295 2.39098C15.9533 1.91121 15.477 1.61652 14.9162 1.39733C14.3723 1.18545 13.751 1.03932 12.8421 0.997921C11.9283 0.956519 11.6382 0.946777 9.3175 0.946777Z" fill="#fff"/><path d="M9.3175 5.13818C6.89284 5.13818 4.92749 7.11818 4.92749 9.56091C4.92749 12.0036 6.89284 13.9836 9.3175 13.9836C11.7422 13.9836 13.7075 12.0036 13.7075 9.56091C13.7075 7.11818 11.7422 5.13818 9.3175 5.13818ZM9.3175 12.4323C7.74376 12.4323 6.46738 11.1464 6.46738 9.56091C6.46738 7.97545 7.74376 6.68955 9.3175 6.68955C10.8912 6.68955 12.1676 7.97545 12.1676 9.56091C12.1676 11.1464 10.8912 12.4323 9.3175 12.4323Z" fill="#fff"/><path d="M13.8792 5.99542C14.4453 5.99542 14.9041 5.5331 14.9041 4.9628C14.9041 4.39249 14.4453 3.93018 13.8792 3.93018C13.3131 3.93018 12.8542 4.39249 12.8542 4.9628C12.8542 5.5331 13.3131 5.99542 13.8792 5.99542Z" fill="#fff"/></svg>