<svg width="18" height="14" viewBox="0 0 18 14" fill="none" xmlns="http://www.w3.org/2000/svg"><path d="M8.1363 10.0158C8.36112 10.2033 8.61978 10.3007 8.9002 10.3373C9.34258 10.3933 9.7342 10.252 10.0799 9.95977C10.3579 9.72354 17.5738 3.58383 17.6029 3.56435C17.6053 3.60575 17.6101 9.93055 17.6077 13.0649C17.6077 13.4814 17.32 13.8345 16.9574 13.893C16.9042 13.9003 16.851 13.9076 16.7979 13.9076C11.4989 13.9076 6.19996 13.9076 0.901004 13.91C0.458619 13.91 0.11051 13.5179 0.112928 13.0528C0.115345 9.81852 0.112928 3.26479 0.112928 3.22339C0.12018 3.22095 7.83412 9.7625 8.1363 10.0158Z" fill="#fff"/><path d="M16.8607 0.970579C17.0807 0.970579 17.2427 1.06556 17.3345 1.28962C17.4143 1.48445 17.3563 1.71095 17.2016 1.84003C16.839 2.14689 9.73662 8.18431 9.4707 8.4108C9.39818 8.47169 9.33049 8.54475 9.25072 8.58615C9.08875 8.66896 8.92921 8.64217 8.789 8.5204C8.62945 8.38401 1.13307 2.0032 0.937263 1.83759C0.765627 1.69147 0.73178 1.44792 0.835728 1.23361C0.925172 1.05338 1.07022 0.982757 1.24911 0.973015C1.27328 0.968144 14.2693 0.970579 16.8607 0.970579Z" fill="#fff"/></svg>