<svg width="216" height="103" viewBox="0 0 216 103" fill="none" xmlns="http://www.w3.org/2000/svg"><g clip-path="url(#clip0_31_10)" fill="#041F32"><path d="M59.3716 36.8181C72.0978 36.8181 84.8241 36.8181 97.548 36.8204C99.2996 36.8204 99.2996 36.8297 99.2996 38.5968C99.3042 59.4755 99.3088 80.3565 99.3156 101.235C99.3156 103.002 99.3156 103.002 97.5503 103.002C72.0612 102.995 46.572 102.989 21.0805 102.982C19.3381 102.982 19.3381 102.979 19.3381 101.288C19.3404 80.3312 19.3427 59.3763 19.345 38.4192C19.345 36.8758 19.3588 36.8366 20.8513 36.8366C33.6921 36.8297 46.5307 36.832 59.3716 36.832C59.3716 36.825 59.3716 36.8204 59.3716 36.8181ZM59.3578 39.1021C59.3578 39.0859 59.3578 39.0698 59.3578 39.0559C47.3194 39.0559 35.2832 39.0559 23.2447 39.0559C21.5046 39.0559 21.4817 39.0536 21.4817 40.7309C21.4863 60.11 21.4955 79.4891 21.5115 98.8682C21.5138 100.857 21.5413 100.852 23.4832 100.852C47.4432 100.85 71.4032 100.85 95.3632 100.848C97.0849 100.848 97.0803 100.85 97.0826 99.145C97.0964 79.6506 97.1124 60.1561 97.1285 40.6616C97.1308 39.169 97.0689 39.0998 95.5879 39.0998C83.5081 39.1021 71.433 39.1021 59.3578 39.1021Z"/><path d="M51.1138 10.6124C52.8035 9.55808 54.2295 8.68602 55.6371 7.78166C59.436 5.33851 63.2417 2.9092 67.0016 0.410673C67.9049 -0.189156 68.4734 -0.145323 69.2552 0.622921C80.7114 11.872 92.1927 23.0935 103.674 34.3172C105.125 35.736 106.627 37.1041 108.071 38.5322C108.507 38.9636 109.092 39.4319 108.342 40.1609C107.643 40.8415 107.12 40.6685 106.496 40.0594C100.295 34.015 94.075 27.9913 87.8689 21.9492C81.5275 15.7755 75.1862 9.5996 68.8792 3.38906C68.1227 2.64389 67.5472 2.6485 66.7058 3.19988C52.7164 12.3634 38.7223 21.5178 24.7122 30.649C17.1145 35.5999 9.48703 40.5024 1.87788 45.4371C1.20614 45.8732 0.745329 45.8362 0.254712 45.1303C-0.325317 44.2951 0.19969 43.9837 0.777426 43.6053C8.91388 38.2876 17.0457 32.963 25.1822 27.6453C27.3602 26.2218 29.5381 24.7961 31.7482 23.4234C32.6836 22.842 33.1009 22.1453 33.0894 20.9895C33.0298 15.1088 33.0825 9.22586 33.0275 3.34292C33.0183 2.21708 33.3851 1.90794 34.4695 1.91948C39.4743 1.97023 44.479 1.94024 49.4861 1.95177C50.9832 1.95408 50.9992 1.97946 51.0107 3.52517C51.0244 5.3708 51.013 7.21643 51.0221 9.06207C51.0244 9.47502 51.068 9.88337 51.1138 10.6124ZM34.9831 20.9433C35.3637 20.8164 35.5241 20.798 35.6456 20.7195C39.9855 17.9211 44.33 15.1342 48.6355 12.2827C48.9863 12.052 49.211 11.3945 49.227 10.9262C49.2889 9.12205 49.2477 7.31564 49.2339 5.50923C49.2202 3.76511 49.2156 3.73973 47.5282 3.73512C43.7867 3.72127 40.0429 3.76511 36.3036 3.71897C35.21 3.70512 34.8341 4.08809 34.8455 5.18855C34.8891 9.9918 34.8639 14.7951 34.8707 19.5983C34.8707 19.9974 34.9372 20.3988 34.9831 20.9433Z"/><path d="M119.431 79.8951C118.289 81.1478 117.668 82.7028 117.115 84.2877C116.902 84.9014 116.742 85.5427 116.634 86.1841C116.476 87.1461 115.955 87.5591 114.99 87.5683C113.174 87.5868 112.886 87.4137 112.48 86.2256C111.888 84.4884 111.249 82.7674 110.559 81.0671C110.377 80.6172 109.942 80.2712 109.623 79.8767C109.522 79.9136 109.421 79.9482 109.321 79.9851C109.291 80.3819 109.236 80.7764 109.236 81.1732C109.224 83.9024 109.188 86.634 109.233 89.3609C109.252 90.4152 108.89 90.8328 107.835 90.7543C106.922 90.6851 105.999 90.6828 105.086 90.7474C103.993 90.8259 103.612 90.4083 103.623 89.294C103.669 84.2577 103.63 79.2215 103.649 74.1852C103.66 70.8077 103.275 71.306 106.659 71.1261C108.575 71.0246 109.997 71.5367 110.976 73.2255C111.952 74.9119 112.973 76.5776 113.963 78.2571C114.133 78.5432 114.259 78.8546 114.525 79.4037C114.882 78.7601 115.112 78.3056 115.378 77.8765C116.561 75.957 117.684 73.996 118.988 72.1619C119.36 71.6382 120.24 71.3152 120.93 71.223C122.056 71.073 123.216 71.1976 124.362 71.186C125.123 71.1768 125.483 71.5206 125.481 72.2957C125.463 78.1002 125.451 83.907 125.444 89.7116C125.444 90.4383 125.112 90.7543 124.39 90.7382C123.283 90.7174 122.173 90.699 121.066 90.7451C120.169 90.782 119.841 90.3968 119.848 89.5155C119.869 86.7101 119.846 83.9024 119.837 81.0948C119.834 80.728 119.802 80.3611 119.784 79.9943C119.669 79.9643 119.55 79.9297 119.431 79.8951Z"/><path d="M151.463 71.186C153.602 71.186 155.741 71.2091 157.88 71.1745C158.795 71.1606 159.215 71.4905 159.201 72.4457C159.148 76.22 159.552 75.574 156.149 75.6386C154.279 75.6732 152.405 75.6709 150.535 75.6686C149.691 75.6663 149.301 75.9893 149.313 76.9052C149.352 79.7105 149.34 82.5159 149.31 85.3212C149.301 86.2533 149.68 86.6962 150.606 86.6155C151.667 86.5232 152.747 86.5117 153.779 86.281C154.966 86.0157 155.45 85.2197 155.434 83.9901C155.418 82.7304 154.939 82.0222 153.726 81.7384C153.031 81.5746 152.289 81.6115 151.566 81.5654C151.3 81.5492 150.943 81.6692 150.78 81.5377C149.758 80.7025 150.459 79.5467 150.342 78.5432C150.303 78.2202 150.764 77.5581 151.053 77.5235C153.414 77.2374 155.757 77.1543 157.977 78.354C160.508 79.7221 161.319 81.9507 161.143 84.6199C160.973 87.2084 159.57 89.0771 157.142 89.8661C155.459 90.4129 153.646 90.6759 151.874 90.7843C149.592 90.925 147.293 90.7635 145.003 90.7774C144.125 90.782 143.781 90.4452 143.785 89.55C143.806 83.8632 143.811 78.174 143.776 72.4872C143.769 71.4467 144.205 71.1653 145.156 71.1837C147.256 71.2275 149.359 71.1976 151.459 71.1976C151.463 71.1929 151.463 71.1883 151.463 71.186Z"/><path d="M195.545 81.0071C195.545 83.8125 195.52 86.6178 195.559 89.4209C195.573 90.4244 195.185 90.8143 194.204 90.7543C193.253 90.6967 192.292 90.6828 191.341 90.7313C190.325 90.7843 190.016 90.3298 190.02 89.3586C190.041 85.3236 190.009 81.2909 190.002 77.2559C190 75.634 189.777 75.4564 188.184 75.814C185.591 76.3976 184.064 78.2617 183.959 81.3832C183.876 83.8332 184.023 86.2925 184.163 88.7449C184.27 90.6275 184.234 90.7405 182.413 90.729C181.496 90.7243 180.57 90.7889 179.669 90.6736C179.279 90.6228 178.667 90.2399 178.612 89.9284C177.785 85.0929 177.681 80.2873 179.69 75.6709C180.763 73.2024 182.778 71.7651 185.339 71.5067C188.441 71.193 191.581 71.2645 194.706 71.1907C195.589 71.1699 195.61 71.8297 195.61 72.478C195.607 75.3203 195.61 78.1648 195.61 81.0071C195.591 81.0071 195.568 81.0071 195.545 81.0071Z"/><path d="M198.679 80.9655C198.679 78.1994 198.675 75.4332 198.679 72.6694C198.682 71.269 198.764 71.1929 200.193 71.1883C201.071 71.1837 201.951 71.2413 202.827 71.1837C203.861 71.1144 204.241 71.5113 204.239 72.5725C204.228 76.6444 204.287 80.714 204.321 84.786C204.333 86.274 204.383 86.334 205.887 86.3201C206.458 86.3155 207.036 86.2948 207.595 86.1909C209.487 85.838 210.337 84.7121 210.154 82.8734C209.991 81.247 208.76 80.2249 206.965 80.2296C205.151 80.2342 205.151 80.2342 205.163 78.3401C205.179 75.9915 205.188 75.98 207.488 75.8646C207.793 75.8485 208.097 75.8439 208.402 75.8485C214.37 75.9362 217.763 81.6092 215.055 86.9892C214.287 88.5141 212.983 89.5015 211.408 89.9491C209.881 90.3828 208.279 90.6666 206.697 90.7566C204.452 90.8811 202.194 90.7381 199.943 90.7704C199.005 90.7843 198.654 90.4474 198.666 89.4946C198.707 86.6523 198.682 83.8078 198.679 80.9655Z"/><path d="M128.496 80.8825C128.496 78.1533 128.53 75.4218 128.478 72.6925C128.457 71.6267 128.755 71.1607 129.899 71.186C133.145 71.2529 136.396 71.2553 139.645 71.2253C140.695 71.216 141.149 71.5113 141.135 72.6625C141.098 75.6225 141.144 75.6225 138.237 75.6225C137.167 75.6225 136.096 75.6455 135.028 75.6202C134.257 75.6017 134.049 75.9962 134.051 76.6929C134.069 79.5375 134.072 82.3844 134.055 85.229C134.051 86.0226 134.402 86.3294 135.167 86.3225C136.926 86.3064 138.684 86.3548 140.44 86.3133C141.346 86.2925 141.651 86.6524 141.628 87.5429C141.529 91.2896 142.082 90.7059 138.473 90.729C135.608 90.7474 132.74 90.692 129.874 90.7336C128.819 90.7497 128.462 90.3368 128.475 89.3032C128.517 86.4978 128.489 83.6902 128.489 80.8825C128.494 80.8825 128.494 80.8825 128.496 80.8825Z"/><path d="M163.554 80.9956C163.554 78.1903 163.589 75.3849 163.538 72.5795C163.52 71.5206 163.903 71.1607 164.944 71.1769C168.227 71.223 171.512 71.2253 174.797 71.1746C175.861 71.1584 176.203 71.546 176.184 72.5865C176.12 76.1416 176.496 75.5741 173.213 75.6271C172.181 75.6433 171.15 75.6456 170.12 75.6248C169.396 75.6087 169.084 75.9294 169.086 76.6584C169.102 79.5399 169.109 82.4237 169.089 85.3052C169.082 86.1634 169.552 86.3272 170.258 86.3249C172.014 86.3179 173.773 86.3618 175.529 86.3272C176.382 86.3087 176.7 86.6479 176.645 87.483C176.599 88.2097 176.602 88.9434 176.636 89.6724C176.675 90.4798 176.31 90.7521 175.54 90.7475C171.95 90.7267 168.36 90.7175 164.769 90.7452C163.795 90.7521 163.531 90.3207 163.543 89.4117C163.577 86.6063 163.554 83.801 163.554 80.9956Z"/><path d="M173.665 77.1681C174.502 77.1681 175.341 77.2004 176.175 77.1589C177.074 77.1151 177.383 77.5165 177.358 78.3932C177.244 82.1398 177.714 81.5123 174.293 81.5561C173.227 81.57 172.161 81.5353 171.097 81.5538C170.389 81.5676 170.042 81.2885 170.049 80.5433C170.093 76.4206 169.637 77.2558 173.094 77.175C173.284 77.1704 173.475 77.175 173.665 77.175C173.665 77.1727 173.665 77.1704 173.665 77.1681Z"/><path d="M138.65 77.1613C139.452 77.1613 140.255 77.1913 141.055 77.1544C141.919 77.1152 142.311 77.4243 142.277 78.354C142.135 82.0984 142.763 81.5055 139.127 81.5608C138.095 81.577 137.063 81.5424 136.034 81.5608C135.314 81.5747 134.982 81.2586 134.986 80.5296C135.011 76.5338 134.567 77.2328 138.077 77.1544C138.267 77.1498 138.46 77.1544 138.65 77.1544C138.65 77.1544 138.65 77.1567 138.65 77.1613Z"/><path d="M59.8003 71.3959C60.3276 71.5436 60.6142 71.6289 60.9053 71.7028C62.7784 72.1872 64.2915 71.4859 64.9633 69.6541C66.0041 66.8165 66.0179 63.9327 64.9953 61.0765C64.2846 59.0902 62.7486 58.4188 60.7563 58.435C58.5898 58.4534 58.5898 58.4165 58.5898 60.5736C58.5875 70.104 58.5875 79.6344 58.5852 89.167C58.5852 90.7497 58.5806 90.7497 56.9758 90.752C55.7928 90.7543 54.6053 90.7035 53.4246 90.7681C52.409 90.8235 52.1155 90.4105 52.1201 89.4208C52.1499 80.8133 52.1384 72.2034 52.1384 63.5958C52.1384 59.2148 52.1659 54.8337 52.1178 50.4526C52.1063 49.4029 52.4227 49.0292 53.4842 49.0523C56.0794 49.1099 58.6792 49.0661 61.2745 49.0592C66.1325 49.0453 69.145 51.1471 70.8323 55.7704C72.4096 60.0938 72.5655 64.5602 72.0382 69.0751C71.7241 71.7581 71.1579 74.3859 69.8924 76.8036C68.0055 80.4118 64.7638 81.9506 61.1575 81.0393C60.0938 80.7694 59.649 80.2573 59.6903 79.1107C59.7682 76.9997 59.7017 74.8842 59.7063 72.7709C59.7063 72.3649 59.759 71.9612 59.8003 71.3959Z"/><path d="M36.3905 63.6719C36.2828 64.011 36.1315 64.3433 36.0742 64.6916C34.9279 71.585 33.7816 78.4762 32.6673 85.3742C32.4404 86.7746 32.3418 88.198 32.1905 89.6099C32.1011 90.4428 31.6907 90.8096 30.8218 90.7635C29.6778 90.7035 28.5315 90.7473 27.3852 90.7473C25.7139 90.7473 25.6084 90.6966 25.7666 88.9755C25.9615 86.8346 26.2091 84.6936 26.553 82.5712C27.5801 76.2407 28.5361 69.8963 29.7741 63.6073C30.6476 59.1686 31.9406 54.8152 33.0273 50.418C33.2772 49.4052 33.8022 48.9622 34.8889 49.0499C36.065 49.1468 37.2571 49.1145 38.4401 49.0545C39.3136 49.0107 39.8042 49.3498 40.0266 50.1827C40.9345 53.5948 42.0899 56.9584 42.7204 60.4213C44.2725 68.9596 45.593 77.5395 46.9801 86.1055C47.1635 87.2406 47.1956 88.3987 47.3194 89.5453C47.4088 90.362 47.1337 90.7796 46.2556 90.7565C44.88 90.7219 43.5045 90.7242 42.1312 90.7427C41.3196 90.7542 40.962 90.3736 40.8978 89.5753C40.7786 88.0827 40.5608 86.5946 40.4874 85.0997C40.4347 84.0108 39.9601 83.6093 38.9124 83.6578C37.6927 83.7131 36.4662 83.6439 35.2465 83.6947C34.4097 83.7293 34.0292 83.4478 34.1461 82.5689C34.4395 80.361 34.7146 78.1509 34.9989 75.9407C35.0883 75.2509 35.4574 74.9141 36.1681 74.9949C36.3195 75.0133 36.4731 74.9995 36.6267 74.9995C39.1554 75.0087 39.2104 74.9972 38.7382 72.5309C38.2177 69.8202 37.585 67.1302 36.9889 64.4355C36.9293 64.1679 36.7734 63.9234 36.6634 63.6673C36.5694 63.6696 36.4799 63.6719 36.3905 63.6719Z"/><path d="M81.4173 74.6398C81.4173 69.7212 81.3897 64.8026 81.4379 59.884C81.4494 58.7812 81.1123 58.3475 80.005 58.4397C79.0949 58.5159 78.1732 58.4328 77.2562 58.4605C76.5065 58.4836 76.1328 58.2229 76.1351 57.4016C76.142 55.0207 76.1145 52.6375 76.0617 50.2567C76.0411 49.35 76.424 49.0478 77.2952 49.0524C82.183 49.0755 87.0708 49.0732 91.9587 49.0501C92.7817 49.0455 93.1302 49.3293 93.1187 50.1829C93.0889 52.6029 93.0981 55.023 93.121 57.4454C93.1279 58.1791 92.8551 58.4951 92.11 58.4674C91.1562 58.4305 90.1956 58.5228 89.2465 58.4444C88.1025 58.3498 87.7242 58.7535 87.7357 59.937C87.7884 65.8546 87.7563 71.7721 87.7563 77.6897C87.7563 81.5701 87.7265 85.4529 87.7746 89.3333C87.7884 90.3922 87.4331 90.7936 86.383 90.7406C85.2024 90.6829 84.0125 90.6829 82.8341 90.7637C81.7015 90.8398 81.3989 90.3599 81.4081 89.2825C81.4516 84.4031 81.4264 79.5238 81.4264 74.6421C81.4218 74.6398 81.4196 74.6398 81.4173 74.6398Z"/></g><defs><clipPath id="clip0_31_10"><path fill="#fff" d="M0 0H216V103H0z"/></clipPath></defs></svg>