<svg width="156" height="75" viewBox="0 0 156 75" fill="none" xmlns="http://www.w3.org/2000/svg"><path d="M70.8438 26.3964C63.8486 26.3948 56.8534 26.3948 49.8582 26.3948H43.3452L42.7688 26.403H37.0402C29.8931 26.403 22.746 26.403 15.5988 26.4064C14.144 26.4064 13.9376 26.7719 13.9376 28.1198L13.9326 73.1906C13.9326 74.732 14.1902 74.9834 15.7656 74.9834L70.8438 75C70.857 75 70.8702 75 70.8851 75C71.6282 75 72.0427 74.995 72.3647 74.6725C72.695 74.3434 72.695 73.8952 72.695 73.1525L72.6834 28.2455C72.6818 26.6561 72.4242 26.3964 70.8438 26.3964ZM69.4286 29.1932C69.5607 29.1932 69.8034 29.1932 69.9455 29.2081C69.9603 29.352 69.9603 29.5984 69.9603 29.7324C69.9488 43.7079 69.9389 57.6835 69.9273 71.6657C69.9273 71.9022 69.9273 72.1453 69.9141 72.2859C69.7704 72.2991 69.5177 72.2991 69.2684 72.2991C52.0099 72.2991 34.7514 72.3008 17.488 72.3024C17.1627 72.3008 16.8308 72.3024 16.6821 72.276C16.6524 72.1172 16.6524 71.755 16.6524 71.4573C16.6409 58.8297 16.6343 45.1965 16.631 29.7803C16.631 29.5786 16.631 29.3189 16.6458 29.1733C16.7928 29.1585 17.0587 29.1601 17.3229 29.1568H42.7573V29.1899L69.4286 29.1932Z" fill="#fff"/><path d="M78.8855 27.85L78.8261 27.7921C78.2597 27.2331 77.6718 26.6807 77.1054 26.1465C76.6281 25.6966 76.1343 25.2318 75.6571 24.7688L75.16 24.2858C67.1922 16.5323 58.9518 8.5174 50.8651 0.613351C50.1071 -0.127602 49.4053 -0.193758 48.5201 0.391727C46.2528 1.89017 43.9211 3.38035 41.667 4.82256L40.3409 5.67102C39.6622 6.106 38.9637 6.53601 38.2255 6.99249C38.1215 7.057 38.0158 7.1215 37.9084 7.18766C37.9068 7.14962 37.9068 7.11323 37.9068 7.07684C37.9035 6.47317 37.9035 5.86783 37.9035 5.26415C37.9035 4.5447 37.9035 3.8269 37.8985 3.10745C37.8886 1.67847 37.6227 1.40723 36.224 1.40392C34.9938 1.40061 33.7635 1.40227 32.5332 1.40227C30.1998 1.40392 27.7855 1.40558 25.4125 1.38077C25.0112 1.37746 24.5191 1.41715 24.1723 1.76447C23.8256 2.1118 23.7859 2.5997 23.7892 2.98672C23.8074 5.03426 23.809 7.11819 23.809 9.13431C23.809 11.2662 23.8107 13.4692 23.8322 15.6375C23.8388 16.2461 23.6637 16.5604 23.1402 16.8829C21.5846 17.8455 20.0274 18.8577 18.5213 19.8368L18.3991 19.9162C15.1542 22.0266 11.9109 24.1386 8.66762 26.249C6.05185 27.9525 3.43608 29.6544 0.820311 31.3563L0.790586 31.3761C0.486734 31.573 0.10857 31.8194 0.0177448 32.2858C-0.0433559 32.6 0.0441667 32.9209 0.286918 33.2666C0.526367 33.6073 0.883063 33.9347 1.38013 33.9347C1.63113 33.9347 1.91847 33.8504 2.24379 33.6403C4.39553 32.2527 6.54891 30.8667 8.70065 29.4824C11.9786 27.3753 15.3672 25.1955 18.6914 23.0388C27.7558 17.1624 37.6508 10.7254 48.9412 3.36215C49.3491 3.09588 49.4598 3.10414 49.7867 3.425C54.475 8.01792 59.2524 12.6472 63.4667 16.7324C65.5144 18.7171 67.5654 20.6985 69.6147 22.6815C72.0389 25.0251 74.4632 27.3687 76.8824 29.7156C77.614 30.4251 78.3323 30.4499 79.016 29.7884C79.305 29.5089 79.452 29.2045 79.452 28.887C79.4553 28.4007 79.1118 28.0683 78.8855 27.85ZM26.2547 4.29496C26.2514 3.95426 26.3125 3.88314 26.3142 3.88314C26.3142 3.88314 26.3802 3.82525 26.689 3.82525C26.6989 3.82525 26.7105 3.82525 26.7204 3.82525C28.3586 3.8451 30.0215 3.84179 31.6283 3.83683C32.6885 3.83517 33.7503 3.83187 34.8105 3.83683C35.0218 3.83683 35.2943 3.83848 35.4413 3.85667C35.4595 4.00387 35.4611 4.28338 35.4644 4.53478C35.4661 4.81264 35.4694 5.08884 35.4727 5.3667C35.4842 6.36235 35.4941 7.38943 35.4611 8.39336C35.4545 8.60506 35.3505 8.85149 35.296 8.90276C32.6538 10.6443 29.9422 12.3826 27.3215 14.063L26.2778 14.7328C26.2762 14.6981 26.2762 14.6633 26.2762 14.6286C26.2745 13.4957 26.2745 12.3644 26.2762 11.2315C26.2745 8.959 26.2762 6.60879 26.2547 4.29496Z" fill="#fff"/><path d="M86.441 57.8573C85.6186 58.7554 85.1711 59.8702 84.7731 61.0064C84.6195 61.4463 84.5039 61.9061 84.4263 62.3659C84.3124 63.0556 83.9375 63.3516 83.2423 63.3583C81.9344 63.3715 81.7263 63.2475 81.4341 62.3957C81.008 61.1503 80.5473 59.9165 80.0502 58.6975C79.9197 58.375 79.606 58.1269 79.3764 57.8441C79.3038 57.8706 79.2311 57.8954 79.1585 57.9218C79.137 58.2063 79.0974 58.4891 79.0974 58.7736C79.0891 60.7302 79.0627 62.6884 79.0957 64.6434C79.1089 65.3992 78.848 65.6986 78.0884 65.6423C77.4311 65.5927 76.7656 65.591 76.1084 65.6374C75.3207 65.6936 75.0465 65.3942 75.0548 64.5954C75.0878 60.9849 75.0598 57.3744 75.073 53.7639C75.0812 51.3426 74.8038 51.6998 77.2412 51.5708C78.6218 51.4981 79.6456 51.8652 80.3508 53.0759C81.0542 54.2849 81.7891 55.479 82.5025 56.6831C82.6247 56.8882 82.7155 57.1114 82.9071 57.5051C83.1647 57.0436 83.3298 56.7178 83.5214 56.4102C84.3735 55.0341 85.1827 53.6283 86.1223 52.3134C86.3898 51.938 87.0239 51.7064 87.521 51.6403C88.3318 51.5328 89.1674 51.6221 89.9931 51.6138C90.5414 51.6072 90.8006 51.8536 90.799 52.4094C90.7858 56.5706 90.7775 60.7335 90.7725 64.8947C90.7725 65.4157 90.5331 65.6423 90.0129 65.6307C89.2153 65.6159 88.416 65.6026 87.6184 65.6357C86.9727 65.6622 86.7366 65.386 86.7416 64.7542C86.7564 62.743 86.7399 60.7302 86.7333 58.7174C86.7316 58.4544 86.7085 58.1914 86.6953 57.9285C86.6111 57.907 86.5252 57.8822 86.441 57.8573Z" fill="#fff"/><path d="M109.512 51.6138C111.053 51.6138 112.594 51.6303 114.135 51.6055C114.793 51.5956 115.096 51.8321 115.086 52.5168C115.048 55.2226 115.338 54.7595 112.888 54.8058C111.54 54.8307 110.191 54.829 108.844 54.8273C108.236 54.8257 107.955 55.0572 107.963 55.7138C107.991 57.725 107.983 59.7362 107.962 61.7473C107.955 62.4155 108.226 62.7331 108.895 62.6752C109.659 62.609 110.437 62.6007 111.18 62.4353C112.036 62.2451 112.384 61.6745 112.372 60.793C112.361 59.89 112.016 59.3822 111.142 59.1788C110.642 59.0614 110.107 59.0878 109.587 59.0547C109.395 59.0432 109.137 59.1292 109.02 59.0349C108.284 58.4362 108.789 57.6076 108.705 56.8881C108.677 56.6566 109.009 56.1819 109.217 56.1571C110.918 55.952 112.605 55.8925 114.204 56.7525C116.027 57.7333 116.612 59.331 116.484 61.2445C116.362 63.1002 115.352 64.4399 113.603 65.0055C112.391 65.3975 111.084 65.5861 109.808 65.6638C108.165 65.7647 106.508 65.6489 104.859 65.6588C104.226 65.6621 103.979 65.4207 103.982 64.7789C103.997 60.702 104 56.6235 103.975 52.5466C103.97 51.8007 104.284 51.5989 104.969 51.6121C106.482 51.6436 107.996 51.6221 109.509 51.6221C109.512 51.6188 109.512 51.6171 109.512 51.6138Z" fill="#fff"/><path d="M141.266 58.6544C141.266 60.6656 141.248 62.6768 141.276 64.6863C141.286 65.4057 141.007 65.6852 140.3 65.6422C139.615 65.6009 138.923 65.591 138.238 65.6257C137.506 65.6637 137.283 65.3379 137.287 64.6416C137.302 61.7489 137.278 58.8579 137.273 55.9652C137.272 54.8025 137.112 54.6751 135.964 54.9315C134.096 55.3499 132.996 56.6863 132.92 58.924C132.861 60.6805 132.967 62.4436 133.067 64.2017C133.145 65.5513 133.119 65.6323 131.809 65.624C131.149 65.6207 130.481 65.667 129.832 65.5843C129.552 65.548 129.111 65.2734 129.071 65.0501C128.475 61.5835 128.401 58.1384 129.847 54.8289C130.62 53.0593 132.072 52.0289 133.916 51.8436C136.151 51.6187 138.413 51.67 140.664 51.617C141.299 51.6022 141.314 52.0752 141.314 52.5399C141.313 54.5775 141.314 56.6168 141.314 58.6544C141.298 58.6544 141.281 58.6544 141.266 58.6544Z" fill="#fff"/><path d="M143.524 58.6248C143.524 56.6417 143.521 54.6587 143.524 52.6773C143.526 51.6734 143.585 51.6188 144.614 51.6155C145.246 51.6122 145.88 51.6535 146.511 51.6122C147.256 51.5625 147.53 51.847 147.528 52.6078C147.52 55.527 147.563 58.4445 147.588 61.3636C147.596 62.4304 147.633 62.4734 148.716 62.4635C149.127 62.4602 149.543 62.4453 149.946 62.3709C151.308 62.1178 151.921 61.3107 151.789 59.9925C151.672 58.8265 150.785 58.0938 149.492 58.0972C148.186 58.1005 148.186 58.1005 148.194 56.7426C148.206 55.0589 148.212 55.0506 149.868 54.968C150.088 54.9564 150.308 54.9531 150.527 54.9564C154.826 55.0192 157.27 59.0862 155.32 62.9431C154.766 64.0364 153.827 64.7442 152.692 65.0651C151.592 65.376 150.438 65.5795 149.299 65.644C147.682 65.7333 146.055 65.6307 144.434 65.6539C143.758 65.6638 143.506 65.4223 143.514 64.7393C143.542 62.7016 143.524 60.664 143.524 58.6248Z" fill="#fff"/><path d="M92.9689 58.5651C92.9689 56.6086 92.9936 54.6503 92.9557 52.6937C92.9408 51.9296 93.1555 51.5955 93.9795 51.6137C96.3178 51.6617 98.6595 51.6634 100.999 51.6419C101.756 51.6352 102.083 51.8469 102.073 52.6722C102.046 54.7942 102.079 54.7942 99.9855 54.7942C99.2143 54.7942 98.4432 54.8108 97.6736 54.7926C97.1188 54.7793 96.9685 55.0621 96.9701 55.5616C96.9834 57.6009 96.985 59.6418 96.9734 61.6811C96.9701 62.2501 97.2228 62.47 97.7744 62.4651C99.041 62.4535 100.308 62.4882 101.573 62.4584C102.225 62.4436 102.444 62.7016 102.428 63.34C102.357 66.0259 102.755 65.6075 100.156 65.624C98.0914 65.6373 96.0256 65.5976 93.9613 65.6273C93.2017 65.6389 92.9441 65.3429 92.954 64.6019C92.9837 62.5908 92.9639 60.5779 92.9639 58.5651C92.9672 58.5651 92.9689 58.5651 92.9689 58.5651Z" fill="#fff"/><path d="M118.222 58.6463C118.222 56.6351 118.246 54.624 118.21 52.6128C118.197 51.8537 118.473 51.5956 119.222 51.6072C121.587 51.6403 123.954 51.642 126.32 51.6056C127.086 51.594 127.332 51.8719 127.319 52.6178C127.273 55.1664 127.544 54.7596 125.179 54.7976C124.436 54.8092 123.693 54.8109 122.951 54.796C122.429 54.7844 122.205 55.0143 122.206 55.5369C122.218 57.6027 122.223 59.6701 122.208 61.7358C122.203 62.351 122.542 62.4685 123.05 62.4668C124.315 62.4619 125.582 62.4933 126.847 62.4685C127.461 62.4552 127.691 62.6984 127.651 63.2971C127.618 63.8181 127.62 64.344 127.644 64.8666C127.672 65.4455 127.41 65.6407 126.855 65.6374C124.269 65.6225 121.683 65.6159 119.097 65.6357C118.395 65.6407 118.205 65.3314 118.213 64.6798C118.238 62.6686 118.222 60.6574 118.222 58.6463Z" fill="#fff"/><path d="M125.504 55.9023C126.107 55.9023 126.711 55.9255 127.312 55.8957C127.96 55.8643 128.183 56.1521 128.165 56.7806C128.082 59.4665 128.42 59.0167 125.957 59.0481C125.189 59.058 124.421 59.0332 123.655 59.0464C123.144 59.0564 122.895 58.8562 122.9 58.322C122.931 55.3665 122.603 55.9652 125.093 55.9073C125.23 55.904 125.367 55.9073 125.504 55.9073C125.504 55.9057 125.504 55.904 125.504 55.9023Z" fill="#fff"/><path d="M100.284 55.8974C100.862 55.8974 101.44 55.9189 102.017 55.8925C102.639 55.8644 102.922 56.086 102.897 56.7525C102.795 59.4368 103.247 59.0118 100.628 59.0515C99.8848 59.063 99.1417 59.0382 98.4002 59.0515C97.8817 59.0614 97.6423 58.8348 97.6456 58.3122C97.6637 55.4476 97.3434 55.9487 99.8716 55.8925C100.009 55.8892 100.147 55.8925 100.284 55.8925C100.284 55.8925 100.284 55.8941 100.284 55.8974Z" fill="#fff"/><path d="M43.4872 51.7642C43.867 51.8701 44.0734 51.9313 44.2832 51.9842C45.6323 52.3315 46.7222 51.8287 47.2061 50.5155C47.9558 48.4812 47.9657 46.4138 47.2292 44.3663C46.7173 42.9423 45.6109 42.461 44.1758 42.4725C42.6153 42.4858 42.6153 42.4593 42.6153 44.0057C42.6136 50.838 42.6136 57.6704 42.612 64.5043C42.612 65.6389 42.6087 65.6389 41.4527 65.6406C40.6006 65.6422 39.7452 65.6058 38.8947 65.6521C38.1632 65.6918 37.9518 65.3958 37.9551 64.6862C37.9766 58.5155 37.9683 52.3431 37.9683 46.1723C37.9683 43.0316 37.9881 39.8908 37.9535 36.75C37.9452 35.9975 38.1731 35.7295 38.9377 35.7461C40.807 35.7874 42.6797 35.756 44.549 35.751C48.0483 35.7411 50.2182 37.2478 51.4336 40.5623C52.5697 43.6617 52.682 46.8637 52.3022 50.1004C52.076 52.0239 51.6681 53.9077 50.7565 55.641C49.3975 58.2277 47.0624 59.3309 44.4648 58.6776C43.6986 58.4841 43.3782 58.1169 43.4079 57.2949C43.4641 55.7816 43.4162 54.2649 43.4195 52.75C43.4211 52.4589 43.4575 52.1694 43.4872 51.7642Z" fill="#fff"/><path d="M26.625 46.2268C26.5474 46.47 26.4384 46.7081 26.3971 46.9579C25.5715 51.8998 24.7458 56.84 23.9432 61.7852C23.7797 62.7891 23.7087 63.8096 23.5997 64.8218C23.5353 65.4189 23.2397 65.6818 22.6139 65.6487C21.7898 65.6057 20.9641 65.6372 20.1385 65.6372C18.9346 65.6372 18.8586 65.6008 18.9726 64.367C19.113 62.8321 19.2913 61.2973 19.539 59.7757C20.2788 55.2374 20.9674 50.6891 21.8592 46.1805C22.4884 42.9984 23.4197 39.8775 24.2025 36.7251C24.3825 35.999 24.7606 35.6815 25.5434 35.7443C26.3905 35.8138 27.2493 35.7907 28.1014 35.7477C28.7305 35.7162 29.0839 35.9594 29.2441 36.5564C29.8981 39.0026 30.7303 41.414 31.1845 43.8965C32.3024 50.0176 33.2536 56.1685 34.2527 62.3095C34.3848 63.1232 34.4079 63.9535 34.4971 64.7755C34.5615 65.361 34.3634 65.6603 33.7309 65.6438C32.7401 65.619 31.7492 65.6206 30.7601 65.6339C30.1755 65.6421 29.9179 65.3692 29.8716 64.797C29.7858 63.7269 29.6289 62.6601 29.576 61.5884C29.5381 60.8077 29.1962 60.52 28.4415 60.5547C27.563 60.5944 26.6795 60.5448 25.801 60.5812C25.1983 60.606 24.9241 60.4042 25.0083 59.774C25.2197 58.1913 25.4179 56.6068 25.6227 55.0224C25.6871 54.5278 25.9529 54.2864 26.4649 54.3442C26.5738 54.3575 26.6845 54.3476 26.7951 54.3476C28.6166 54.3542 28.6562 54.3459 28.316 52.5779C27.9412 50.6345 27.4854 48.7061 27.056 46.7743C27.0131 46.5824 26.9008 46.4071 26.8215 46.2235C26.7555 46.2252 26.6911 46.2268 26.625 46.2268Z" fill="#fff"/><path d="M59.058 54.0896C59.058 50.5635 59.0382 47.0373 59.0729 43.5112C59.0811 42.7206 58.8384 42.4097 58.0408 42.4759C57.3852 42.5304 56.7213 42.4709 56.0608 42.4907C55.5208 42.5073 55.2516 42.3204 55.2532 41.7316C55.2582 40.0248 55.2384 38.3163 55.2004 36.6094C55.1855 35.9594 55.4613 35.7428 56.0888 35.7461C59.6096 35.7626 63.1303 35.761 66.651 35.7444C67.2438 35.7411 67.4949 35.9445 67.4866 36.5565C67.4651 38.2915 67.4717 40.0264 67.4882 41.763C67.4932 42.289 67.2967 42.5155 66.76 42.4957C66.073 42.4692 65.3811 42.5354 64.6974 42.4792C63.8734 42.4113 63.6009 42.7008 63.6092 43.5492C63.6472 47.7915 63.624 52.0338 63.624 56.2761C63.624 59.058 63.6026 61.8415 63.6372 64.6234C63.6472 65.3826 63.3912 65.6703 62.6349 65.6323C61.7844 65.5909 60.9274 65.5909 60.0785 65.6488C59.2628 65.7034 59.0448 65.3594 59.0514 64.587C59.0828 61.089 59.0646 57.591 59.0646 54.0913C59.063 54.0896 59.0597 54.0896 59.058 54.0896Z" fill="#fff"/></svg>